<svg width="24" height="24" viewBox="0 0 24 24" fill="none" xmlns="http://www.w3.org/2000/svg">
<g clip-path="url(#clip0)">
<path d="M4.40637 6.75008H5.34388V7.68759C5.34388 8.0759 5.65869 8.39072 6.047 8.39072C6.43532 8.39072 6.75013 8.0759 6.75013 7.68759V6.75008H7.68763C8.07595 6.75008 8.39076 6.43527 8.39076 6.04695C8.39076 5.65864 8.07595 5.34382 7.68763 5.34382H6.75013V4.40632C6.75013 4.018 6.43532 3.70319 6.047 3.70319C5.65869 3.70319 5.34388 4.018 5.34388 4.40632V5.34382H4.40637C4.01806 5.34382 3.70325 5.65864 3.70325 6.04695C3.70325 6.43527 4.01806 6.75008 4.40637 6.75008Z" fill="white"/>
<path d="M15.3283 6.75007H18.1408C18.5291 6.75007 18.8439 6.43526 18.8439 6.04694C18.8439 5.65863 18.5291 5.34381 18.1408 5.34381H15.3283C14.9399 5.34381 14.6251 5.65863 14.6251 6.04694C14.6251 6.43526 14.9399 6.75007 15.3283 6.75007Z" fill="white"/>
<path d="M18.3751 17.2032H15.0939C14.7056 17.2032 14.3907 17.5181 14.3907 17.9064C14.3907 18.2947 14.7056 18.6095 15.0939 18.6095H18.3751C18.7634 18.6095 19.0782 18.2947 19.0782 17.9064C19.0782 17.5181 18.7634 17.2032 18.3751 17.2032Z" fill="white"/>
<path d="M18.3751 14.8595H15.0939C14.7056 14.8595 14.3907 15.1743 14.3907 15.5626C14.3907 15.9509 14.7056 16.2658 15.0939 16.2658H18.3751C18.7634 16.2658 19.0782 15.9509 19.0782 15.5626C19.0782 15.1743 18.7634 14.8595 18.3751 14.8595Z" fill="white"/>
<path d="M7.71606 15.0655C7.44151 14.7909 6.99629 14.7909 6.7217 15.0655L6.04702 15.7402L5.3723 15.0654C5.09776 14.7908 4.65254 14.7908 4.37794 15.0654C4.10335 15.34 4.10335 15.7852 4.37794 16.0598L5.05266 16.7345L4.37794 17.4093C4.10335 17.6838 4.10335 18.129 4.37794 18.4036C4.51524 18.5409 4.69519 18.6095 4.87515 18.6095C5.0551 18.6095 5.23505 18.5409 5.3723 18.4036L6.04702 17.7289L6.72174 18.4036C6.85899 18.5409 7.03895 18.6095 7.2189 18.6095C7.39885 18.6095 7.57881 18.5409 7.71606 18.4036C7.99065 18.129 7.99065 17.6838 7.71606 17.4092L7.04138 16.7345L7.7161 16.0598C7.9907 15.7853 7.9907 15.34 7.71606 15.0655Z" fill="white"/>
<path d="M22.7814 12.7112V2.10945C22.7814 0.946331 21.8352 6.10352e-05 20.672 6.10352e-05L2.1095 6.10352e-05C0.94639 6.10352e-05 0.00012207 0.946331 0.00012207 2.10945L0.00012207 20.672C0.00012207 21.8351 0.94639 22.7814 2.1095 22.7814H12.7111C13.8638 23.5509 15.2476 24.0002 16.7345 24.0002C20.7409 24.0002 24.0002 20.7408 24.0002 16.7345C24.0002 15.2476 23.5509 13.8638 22.7814 12.7112ZM21.3752 2.10945V11.1484C20.1156 10.1002 18.4975 9.46886 16.7345 9.46886C14.9716 9.46886 13.3535 10.1002 12.0939 11.1484V1.40632H20.672C21.0597 1.40632 21.3752 1.72174 21.3752 2.10945ZM2.1095 1.40632H10.6876V10.6876H1.40638V2.10945C1.40638 1.72174 1.7218 1.40632 2.1095 1.40632ZM1.40638 20.672V12.0939H10.6876V12.7112C9.91814 13.8638 9.46889 15.2476 9.46889 16.7345C9.46889 18.4974 10.1003 20.1156 11.1484 21.3752H2.1095C1.7218 21.3752 1.40638 21.0597 1.40638 20.672ZM16.7345 22.5939C13.5037 22.5939 10.8751 19.9654 10.8751 16.7345C10.8751 13.5036 13.5037 10.8751 16.7345 10.8751C19.9654 10.8751 22.5939 13.5036 22.5939 16.7345C22.5939 19.9654 19.9654 22.5939 16.7345 22.5939Z" fill="white"/>
</g>
<defs>
<clipPath id="clip0">
<rect width="24.0001" height="24.0001" fill="white" transform="translate(0.00012207)"/>
</clipPath>
</defs>
</svg>
