<svg width="125" height="45" viewBox="0 0 125 45" fill="none" xmlns="http://www.w3.org/2000/svg">
<path d="M54.948 3.4C56.04 3.4 56.988 3.58 57.792 3.94C58.608 4.3 59.232 4.816 59.664 5.488C60.096 6.16 60.312 6.958 60.312 7.882C60.312 8.794 60.096 9.592 59.664 10.276C59.232 10.948 58.608 11.464 57.792 11.824C56.988 12.184 56.04 12.364 54.948 12.364H52.104V16H49.764V3.4H54.948ZM54.84 10.384C55.86 10.384 56.634 10.168 57.162 9.736C57.69 9.304 57.954 8.686 57.954 7.882C57.954 7.078 57.69 6.46 57.162 6.028C56.634 5.596 55.86 5.38 54.84 5.38H52.104V10.384H54.84ZM71.2386 11.248C71.2386 11.404 71.2266 11.626 71.2026 11.914H63.6606C63.7926 12.622 64.1346 13.186 64.6866 13.606C65.2506 14.014 65.9466 14.218 66.7746 14.218C67.8306 14.218 68.7006 13.87 69.3846 13.174L70.5906 14.56C70.1586 15.076 69.6126 15.466 68.9526 15.73C68.2926 15.994 67.5486 16.126 66.7206 16.126C65.6646 16.126 64.7346 15.916 63.9306 15.496C63.1266 15.076 62.5026 14.494 62.0586 13.75C61.6266 12.994 61.4106 12.142 61.4106 11.194C61.4106 10.258 61.6206 9.418 62.0406 8.674C62.4726 7.918 63.0666 7.33 63.8226 6.91C64.5786 6.49 65.4306 6.28 66.3786 6.28C67.3146 6.28 68.1486 6.49 68.8806 6.91C69.6246 7.318 70.2006 7.9 70.6086 8.656C71.0286 9.4 71.2386 10.264 71.2386 11.248ZM66.3786 8.08C65.6586 8.08 65.0466 8.296 64.5426 8.728C64.0506 9.148 63.7506 9.712 63.6426 10.42H69.0966C69.0006 9.724 68.7066 9.16 68.2146 8.728C67.7226 8.296 67.1106 8.08 66.3786 8.08ZM83.1495 16V9.628L79.9095 14.992H78.9375L75.7515 9.61V16H73.6995V6.388H76.0575L79.4775 12.4L83.0595 6.388H85.1655L85.1835 16H83.1495ZM92.4855 16.126C91.5135 16.126 90.6375 15.916 89.8575 15.496C89.0775 15.076 88.4655 14.494 88.0215 13.75C87.5895 12.994 87.3735 12.142 87.3735 11.194C87.3735 10.246 87.5895 9.4 88.0215 8.656C88.4655 7.912 89.0775 7.33 89.8575 6.91C90.6375 6.49 91.5135 6.28 92.4855 6.28C93.4695 6.28 94.3515 6.49 95.1315 6.91C95.9115 7.33 96.5175 7.912 96.9495 8.656C97.3935 9.4 97.6155 10.246 97.6155 11.194C97.6155 12.142 97.3935 12.994 96.9495 13.75C96.5175 14.494 95.9115 15.076 95.1315 15.496C94.3515 15.916 93.4695 16.126 92.4855 16.126ZM92.4855 14.2C93.3135 14.2 93.9975 13.924 94.5375 13.372C95.0775 12.82 95.3475 12.094 95.3475 11.194C95.3475 10.294 95.0775 9.568 94.5375 9.016C93.9975 8.464 93.3135 8.188 92.4855 8.188C91.6575 8.188 90.9735 8.464 90.4335 9.016C89.9055 9.568 89.6415 10.294 89.6415 11.194C89.6415 12.094 89.9055 12.82 90.4335 13.372C90.9735 13.924 91.6575 14.2 92.4855 14.2ZM99.8382 6.388H102.088V10.294H106.93V6.388H109.18V16H106.93V12.202H102.088V16H99.8382V6.388ZM119.81 8.296H116.444V16H114.194V8.296H110.81V6.388H119.81V8.296ZM49.512 26.388H51.762V30.294H56.604V26.388H58.854V36H56.604V32.202H51.762V36H49.512V26.388ZM65.4514 26.28C66.8674 26.28 67.9474 26.622 68.6914 27.306C69.4474 27.978 69.8254 28.998 69.8254 30.366V36H67.7014V34.83C67.4254 35.25 67.0294 35.574 66.5134 35.802C66.0094 36.018 65.3974 36.126 64.6774 36.126C63.9574 36.126 63.3274 36.006 62.7874 35.766C62.2474 35.514 61.8274 35.172 61.5274 34.74C61.2394 34.296 61.0954 33.798 61.0954 33.246C61.0954 32.382 61.4134 31.692 62.0494 31.176C62.6974 30.648 63.7114 30.384 65.0914 30.384H67.5754V30.24C67.5754 29.568 67.3714 29.052 66.9634 28.692C66.5674 28.332 65.9734 28.152 65.1814 28.152C64.6414 28.152 64.1074 28.236 63.5794 28.404C63.0634 28.572 62.6254 28.806 62.2654 29.106L61.3834 27.468C61.8874 27.084 62.4934 26.79 63.2014 26.586C63.9094 26.382 64.6594 26.28 65.4514 26.28ZM65.1454 34.488C65.7094 34.488 66.2074 34.362 66.6394 34.11C67.0834 33.846 67.3954 33.474 67.5754 32.994V31.878H65.2534C63.9574 31.878 63.3094 32.304 63.3094 33.156C63.3094 33.564 63.4714 33.888 63.7954 34.128C64.1194 34.368 64.5694 34.488 65.1454 34.488ZM77.5843 26.388H79.8343V30.294H84.6763V26.388H86.9263V36H84.6763V32.202H79.8343V36H77.5843V26.388ZM93.5237 26.28C94.9397 26.28 96.0197 26.622 96.7637 27.306C97.5197 27.978 97.8977 28.998 97.8977 30.366V36H95.7737V34.83C95.4977 35.25 95.1017 35.574 94.5857 35.802C94.0817 36.018 93.4697 36.126 92.7497 36.126C92.0297 36.126 91.3997 36.006 90.8597 35.766C90.3197 35.514 89.8997 35.172 89.5997 34.74C89.3117 34.296 89.1677 33.798 89.1677 33.246C89.1677 32.382 89.4857 31.692 90.1217 31.176C90.7697 30.648 91.7837 30.384 93.1637 30.384H95.6477V30.24C95.6477 29.568 95.4437 29.052 95.0357 28.692C94.6397 28.332 94.0457 28.152 93.2537 28.152C92.7137 28.152 92.1797 28.236 91.6517 28.404C91.1357 28.572 90.6977 28.806 90.3377 29.106L89.4557 27.468C89.9597 27.084 90.5657 26.79 91.2737 26.586C91.9817 26.382 92.7317 26.28 93.5237 26.28ZM93.2177 34.488C93.7817 34.488 94.2797 34.362 94.7117 34.11C95.1557 33.846 95.4677 33.474 95.6477 32.994V31.878H93.3257C92.0297 31.878 91.3817 32.304 91.3817 33.156C91.3817 33.564 91.5437 33.888 91.8677 34.128C92.1917 34.368 92.6417 34.488 93.2177 34.488ZM105.056 36.126C104.06 36.126 103.166 35.916 102.374 35.496C101.582 35.076 100.964 34.494 100.52 33.75C100.076 32.994 99.8539 32.142 99.8539 31.194C99.8539 30.246 100.076 29.4 100.52 28.656C100.964 27.912 101.576 27.33 102.356 26.91C103.148 26.49 104.048 26.28 105.056 26.28C106.004 26.28 106.832 26.472 107.54 26.856C108.26 27.24 108.8 27.792 109.16 28.512L107.432 29.52C107.156 29.076 106.808 28.746 106.388 28.53C105.98 28.302 105.53 28.188 105.038 28.188C104.198 28.188 103.502 28.464 102.95 29.016C102.398 29.556 102.122 30.282 102.122 31.194C102.122 32.106 102.392 32.838 102.932 33.39C103.484 33.93 104.186 34.2 105.038 34.2C105.53 34.2 105.98 34.092 106.388 33.876C106.808 33.648 107.156 33.312 107.432 32.868L109.16 33.876C108.788 34.596 108.242 35.154 107.522 35.55C106.814 35.934 105.992 36.126 105.056 36.126Z" fill="white"/>
<rect width="45" height="45" rx="2" fill="#AA8532"/>
<g clip-path="url(#clip0)">
<path d="M18.6106 18.1412C19.3805 18.5985 20.2435 18.8272 21.1067 18.8272C21.9698 18.8272 22.8329 18.6071 23.6027 18.1498C25.2601 17.1651 26.2308 15.297 26.3264 12.9987H27.703C28.0996 12.9987 28.4213 12.6771 28.4213 12.2805C28.4213 11.8839 28.0996 11.5622 27.703 11.5622H25.6136C25.6113 11.5622 25.6089 11.5622 25.6065 11.5622H17.3746C17.6577 9.62303 19.0427 8.18658 20.7034 8.18658H21.6882C22.7952 8.18658 23.8367 8.85618 24.4739 9.9652C24.6716 10.3092 25.1107 10.4313 25.4545 10.2338C25.7984 10.0362 25.9169 9.59158 25.7194 9.24762C24.8228 7.68734 23.3158 6.75012 21.6881 6.75012H20.7033C18.0504 6.75012 15.8915 9.21659 15.8852 12.2421C15.7893 14.9007 16.7822 17.055 18.6106 18.1412ZM24.8884 12.9987C24.7997 14.7943 24.0822 16.194 22.8691 16.9148C21.7821 17.5607 20.4315 17.565 19.3443 16.9192C18.131 16.1984 17.4135 14.7943 17.3247 12.9987H24.8884ZM36.458 32.771V34.3814C36.458 34.3817 36.458 34.382 36.458 34.3824C36.458 34.3828 36.458 34.3833 36.458 34.3837C36.458 34.3839 36.458 34.3841 36.458 34.3842C36.458 34.3849 36.458 34.3855 36.458 34.3861C36.458 34.7806 36.1373 35.1202 35.7422 35.1202H35.3089V37.5319C35.3089 37.9285 34.9872 38.2502 34.5906 38.2502C34.194 38.2502 33.8724 37.9285 33.8724 37.5319V35.1201H33.4656C33.4622 35.1201 33.4588 35.1201 33.4554 35.1201C33.0587 35.1201 32.7302 34.7882 32.7302 34.3916L32.7232 34.3813V32.771C32.7232 32.3743 33.0449 32.0528 33.4415 32.0528C33.8381 32.0528 34.1597 32.3744 34.1597 32.771V33.6837H35.0216V32.771C35.0216 32.3744 35.3432 32.0528 35.7398 32.0528C36.1364 32.0528 36.458 32.3744 36.458 32.771ZM25.7397 24.2989C25.9133 24.6557 26.3416 24.804 26.6982 24.6305C27.0548 24.4569 27.2024 24.0271 27.0289 23.6704C26.4328 22.4454 25.3949 21.4902 24.0282 20.9075C22.8009 20.3845 21.3659 20.1992 19.9879 20.3863C17.2074 20.7636 15.199 22.5157 14.7464 24.959L13.0534 34.0973C13.0145 34.3071 13.071 34.5384 13.2074 34.7025C13.3438 34.8665 13.5462 34.9765 13.7596 34.9765H21.9399C22.3365 34.9765 22.6581 34.6549 22.6581 34.2583C22.6581 33.8616 22.3365 33.54 21.9399 33.54H14.6231L16.1727 25.2357C16.4151 23.9269 17.2095 22.8889 18.5023 22.301V24.7058H18.1992C17.8493 24.7058 17.5504 24.9538 17.4913 25.2986L16.5435 30.8322C16.4765 31.2232 16.7393 31.5934 17.1302 31.6603C17.5211 31.7271 17.8924 31.4683 17.9593 31.0772L18.805 26.1423H23.1935L23.3175 26.8588C23.3847 27.2497 23.7557 27.51 24.147 27.4428C24.5379 27.3756 24.8004 27.0032 24.7332 26.6122L24.5067 25.2986C24.4474 24.9539 24.1486 24.7058 23.7989 24.7058H23.5301V22.2572C24.4636 22.6625 25.2665 23.3265 25.7397 24.2989ZM22.0935 24.7058H19.9388V21.852C20.0106 21.8362 20.1068 21.8221 20.198 21.8098C20.797 21.7285 21.447 21.7339 22.0935 21.8402V24.7058ZM31.2321 36.1975H26.6183V30.5235H35.2799C35.6765 30.5235 35.9981 30.2018 35.9981 29.8052C35.9981 29.4086 35.6765 29.087 35.2799 29.087H33.2978V27.0121C33.2978 27.0115 33.2978 27.011 33.2978 27.0105C33.2978 27.0103 33.2978 27.01 33.2978 27.0097C33.2978 26.6157 32.9931 26.2963 32.5993 26.2938L32.6068 26.2898C32.6062 26.2898 32.6129 26.2859 32.6121 26.2859C32.6112 26.2859 32.6103 26.2859 32.6098 26.2859L28.6037 26.2899C28.5989 26.2899 28.5941 26.2918 28.5892 26.2918C28.1926 26.2918 27.8552 26.6144 27.8552 27.0111L27.8393 27.0122V29.087H25.8723C25.4757 29.087 25.1818 29.3911 25.1818 29.7878V36.9094C25.1818 37.3061 25.4757 37.6339 25.8723 37.6339H31.2321C31.6287 37.6339 31.9504 37.3123 31.9504 36.9157C31.9504 36.5191 31.6288 36.1975 31.2321 36.1975ZM29.2757 27.7304L31.8614 27.7303V29.087H29.2757V27.7304Z" fill="white"/>
</g>
<defs>
<clipPath id="clip0">
<rect width="31.5" height="31.5" fill="white" transform="translate(8.99976 6.75012)"/>
</clipPath>
</defs>
</svg>
