<svg width="28" height="56" viewBox="0 0 28 56" fill="none" xmlns="http://www.w3.org/2000/svg">
<g clip-path="url(#clip0)">
<path d="M10.9864 45.7112L10.5232 52.2259C11.1859 52.2259 11.4729 51.9412 11.8171 51.5994L14.9239 48.6302L21.3616 53.3447C22.5422 54.0027 23.3741 53.6562 23.6926 52.2585L27.9182 32.4579L27.9194 32.4567C28.2939 30.7114 27.2882 30.0289 26.1379 30.457L1.29957 39.9665C-0.395598 40.6245 -0.369931 41.5695 1.0114 41.9977L7.36157 43.9729L22.1117 34.7434C22.8059 34.2837 23.4371 34.538 22.9179 34.9977L10.9864 45.7112Z" fill="#AA8532"/>
</g>
<g clip-path="url(#clip1)">
<path d="M10.9864 17.7112L10.5232 24.2259C11.1859 24.2259 11.4729 23.9412 11.8171 23.5994L14.9239 20.6302L21.3616 25.3447C22.5422 26.0027 23.3741 25.6562 23.6926 24.2585L27.9182 4.45786L27.9194 4.45669C28.2939 2.71136 27.2882 2.02886 26.1379 2.45703L1.29957 11.9665C-0.395598 12.6245 -0.369931 13.5695 1.0114 13.9977L7.36157 15.9729L22.1117 6.74336C22.8059 6.28369 23.4371 6.53803 22.9179 6.99769L10.9864 17.7112Z" fill="white"/>
</g>
<defs>
<clipPath id="clip0">
<rect width="28" height="28" fill="white" transform="translate(0 28)"/>
</clipPath>
<clipPath id="clip1">
<rect width="28" height="28" fill="white"/>
</clipPath>
</defs>
</svg>
