<svg width="28" height="56" viewBox="0 0 28 56" fill="none" xmlns="http://www.w3.org/2000/svg">
<g clip-path="url(#clip0)">
<path d="M27.0141 44.2085C27.8495 37.177 26.6128 32.7379 24.3821 30.73L24.3833 30.7289C20.783 27.3 8.62397 26.7925 4.31664 30.8829C2.3823 32.8837 1.70097 35.8202 1.6263 39.4555C1.55164 43.092 1.46297 49.9042 7.8108 51.7522H7.81664L7.8108 54.5744C7.8108 54.5744 7.76764 55.7177 8.49797 55.9475C9.3333 56.2182 9.7113 55.6874 12.3095 52.584C16.6541 52.9609 19.9908 52.0975 20.37 51.9715C21.2473 51.6775 26.2115 51.0207 27.0141 44.2085ZM12.7376 50.5984C12.7376 50.5984 9.98781 54.0272 9.13264 54.9174C8.85264 55.2067 8.5458 55.1799 8.55047 54.6059C8.55047 54.229 8.57147 49.9205 8.57147 49.9205C3.18964 48.3782 3.50697 42.5775 3.5653 39.543C3.62364 36.5074 4.17897 34.0212 5.81697 32.347C9.59581 28.8039 20.2556 29.596 22.9716 32.1487C26.292 35.0922 25.1101 43.4082 25.1171 43.6917C24.4346 49.378 20.412 49.7385 19.6723 49.9847C19.3561 50.0897 16.422 50.8445 12.7376 50.5984V50.5984Z" fill="#AA8532"/>
<path d="M14.2589 33.0132C13.8098 33.0132 13.8098 33.7132 14.2589 33.719C17.7438 33.7459 20.6138 36.1749 20.6453 40.6304C20.6453 41.1005 21.3336 41.0947 21.3278 40.6245H21.3266C21.2893 35.8237 18.1556 33.04 14.2589 33.0132V33.0132Z" fill="#AA8532"/>
<path d="M18.8428 39.8919C18.8323 40.3562 19.5195 40.3784 19.5253 39.9082C19.5825 37.261 17.9503 35.0805 14.8831 34.8507C14.434 34.818 14.3873 35.5239 14.8353 35.5565C17.4953 35.7584 18.8965 37.5737 18.8428 39.8919V39.8919Z" fill="#AA8532"/>
<path d="M18.1078 42.903C17.5315 42.5694 16.9446 42.777 16.702 43.1049L16.1945 43.7617C15.9366 44.0954 15.4548 44.051 15.4548 44.051C11.9385 43.1212 10.9981 39.4415 10.9981 39.4415C10.9981 39.4415 10.955 38.9434 11.277 38.6762L11.9116 38.1512C12.229 37.8992 12.4296 37.2925 12.1065 36.6964C11.2431 35.1365 10.6633 34.5987 10.3681 34.1857C10.0578 33.7972 9.59113 33.7097 9.1058 33.9722H9.0953C8.08613 34.5625 6.9813 35.6674 7.3348 36.8049C7.93796 38.0042 9.0463 41.8274 12.579 44.716C14.2391 46.0822 16.8665 47.4822 17.9818 47.8054L17.9923 47.8217C19.0913 48.188 20.16 47.04 20.7305 46.0005V45.9924C20.9836 45.4895 20.8996 45.0135 20.5298 44.702C19.8741 44.0627 18.8848 43.3569 18.1078 42.903Z" fill="#AA8532"/>
<path d="M15.3638 37.4547C16.485 37.52 17.0287 38.1057 17.087 39.3085C17.108 39.7787 17.7905 39.746 17.7695 39.2759C17.6948 37.7055 16.8758 36.8305 15.4012 36.7489C14.952 36.722 14.91 37.4279 15.3638 37.4547V37.4547Z" fill="#AA8532"/>
</g>
<g clip-path="url(#clip1)">
<path d="M27.0141 16.2085C27.8495 9.17703 26.6128 4.73786 24.3821 2.73003L24.3833 2.72886C20.783 -0.699971 8.62397 -1.20747 4.31664 2.88286C2.3823 4.8837 1.70097 7.8202 1.6263 11.4555C1.55164 15.092 1.46297 21.9042 7.8108 23.7522H7.81664L7.8108 26.5744C7.8108 26.5744 7.76764 27.7177 8.49797 27.9475C9.3333 28.2182 9.7113 27.6874 12.3095 24.584C16.6541 24.9609 19.9908 24.0975 20.37 23.9715C21.2473 23.6775 26.2115 23.0207 27.0141 16.2085ZM12.7376 22.5984C12.7376 22.5984 9.98781 26.0272 9.13264 26.9174C8.85264 27.2067 8.5458 27.1799 8.55047 26.6059C8.55047 26.229 8.57147 21.9205 8.57147 21.9205C3.18964 20.3782 3.50697 14.5775 3.5653 11.543C3.62364 8.50736 4.17897 6.0212 5.81697 4.34703C9.59581 0.803862 20.2556 1.59603 22.9716 4.1487C26.292 7.0922 25.1101 15.4082 25.1171 15.6917C24.4346 21.378 20.412 21.7385 19.6723 21.9847C19.3561 22.0897 16.422 22.8445 12.7376 22.5984Z" fill="white"/>
<path d="M14.2589 5.01318C13.8098 5.01318 13.8098 5.71318 14.2589 5.71902C17.7438 5.74585 20.6138 8.17485 20.6453 12.6304C20.6453 13.1005 21.3336 13.0947 21.3278 12.6245H21.3266C21.2893 7.82368 18.1556 5.04002 14.2589 5.01318Z" fill="white"/>
<path d="M18.8428 11.8919C18.8323 12.3562 19.5195 12.3784 19.5253 11.9082C19.5825 9.26104 17.9503 7.08054 14.8831 6.85071C14.434 6.81804 14.3873 7.52388 14.8353 7.55654C17.4953 7.75837 18.8965 9.57371 18.8428 11.8919Z" fill="white"/>
<path d="M18.1078 14.903C17.5315 14.5694 16.9446 14.777 16.702 15.1049L16.1945 15.7617C15.9366 16.0954 15.4548 16.051 15.4548 16.051C11.9385 15.1212 10.9981 11.4415 10.9981 11.4415C10.9981 11.4415 10.955 10.9434 11.277 10.6762L11.9116 10.1512C12.229 9.89919 12.4296 9.29252 12.1065 8.69635C11.2431 7.13652 10.6633 6.59869 10.3681 6.18569C10.0578 5.79719 9.59113 5.70969 9.1058 5.97219H9.0953C8.08613 6.56252 6.9813 7.66735 7.3348 8.80485C7.93796 10.0042 9.0463 13.8274 12.579 16.716C14.2391 18.0822 16.8665 19.4822 17.9818 19.8054L17.9923 19.8217C19.0913 20.188 20.16 19.04 20.7305 18.0005V17.9924C20.9836 17.4895 20.8996 17.0135 20.5298 16.702C19.8741 16.0627 18.8848 15.3569 18.1078 14.903Z" fill="white"/>
<path d="M15.3638 9.45469C16.485 9.52002 17.0287 10.1057 17.087 11.3085C17.108 11.7787 17.7905 11.746 17.7695 11.2759C17.6948 9.70552 16.8758 8.83052 15.4012 8.74885C14.952 8.72202 14.91 9.42785 15.3638 9.45469Z" fill="white"/>
</g>
<defs>
<clipPath id="clip0">
<rect width="28" height="28" fill="white" transform="translate(0 28)"/>
</clipPath>
<clipPath id="clip1">
<rect width="28" height="28" fill="white"/>
</clipPath>
</defs>
</svg>
